<svg xmlns="http://www.w3.org/2000/svg" viewBox="0 0 400 400">
  <g class="bolgeler">
    <path class="boyanabilir" id="cadir" fill="#ffffff" d="M200 70 L340 320 L60 320 Z"/>
    <path class="boyanabilir" id="kapi" fill="#ffffff" d="M200 150 L255 320 L145 320 Z"/>
    <path class="boyanabilir" id="bayrak" fill="#ffffff" d="M200 40 L262 56 L200 72 Z"/>
    <rect class="boyanabilir" id="zemin" fill="#ffffff" x="0" y="320" width="400" height="60"/>
  </g>
  <g class="cizgiler" fill="none" stroke="#000000" stroke-width="6" stroke-linejoin="round" stroke-linecap="round" pointer-events="none">
    <path d="M200 70 L340 320 L60 320 Z"/>
    <path d="M200 150 L255 320 L145 320 Z"/>
    <path d="M200 40 L262 56 L200 72 Z"/>
    <path d="M200 30 L200 150"/>
    <path d="M0 320 L400 320"/>
    <path d="M30 348 C50 336 70 360 90 348 M300 348 C320 336 340 360 360 348"/>
  </g>
</svg>
