<svg xmlns="http://www.w3.org/2000/svg" viewBox="0 0 400 400">
  <g class="bolgeler">
    <path class="boyanabilir" id="duvar" fill="#ffffff" d="M75 190 L325 190 L325 340 L75 340 Z"/>
    <path class="boyanabilir" id="cati" fill="#ffffff" d="M200 60 L370 195 L30 195 Z"/>
    <path class="boyanabilir" id="kapi" fill="#ffffff" d="M175 250 L235 250 L235 340 L175 340 Z"/>
    <path class="boyanabilir" id="solPencere" fill="#ffffff" d="M105 225 L155 225 L155 275 L105 275 Z"/>
    <path class="boyanabilir" id="sagPencere" fill="#ffffff" d="M255 225 L305 225 L305 275 L255 275 Z"/>
    <path class="boyanabilir" id="baca" fill="#ffffff" d="M280 75 L320 75 L320 155 L280 125 Z"/>
  </g>
  <g class="cizgiler" fill="none" stroke="#000000" stroke-width="6" stroke-linejoin="round" stroke-linecap="round" pointer-events="none">
    <path d="M75 190 L325 190 L325 340 L75 340 Z"/>
    <path d="M200 60 L370 195 L30 195 Z"/>
    <path d="M175 250 L235 250 L235 340 L175 340 Z"/>
    <path d="M105 225 L155 225 L155 275 L105 275 Z"/>
    <path d="M255 225 L305 225 L305 275 L255 275 Z"/>
    <path d="M280 75 L320 75 L320 155"/>
    <path d="M130 225 L130 275 M105 250 L155 250"/>
    <path d="M280 225 L280 275 M255 250 L305 250"/>
    <circle cx="222" cy="298" r="7" fill="#000000"/>
  </g>
</svg>
